<?xml version="1.0" encoding="iso-8859-1"?>
<!-- Generator: Adobe Illustrator 19.0.0, SVG Export Plug-In . SVG Version: 6.00 Build 0)  -->
<svg version="1.1" id="Layer_1" xmlns="http://www.w3.org/2000/svg" xmlns:xlink="http://www.w3.org/1999/xlink" x="0px" y="0px"
	 viewBox="0 0 512.001 512.001" style="enable-background:new 0 0 512.001 512.001;" xml:space="preserve">
<g>
	<g>
		<path d="M256.001,354.295h-67.322c-5.771,0-10.449,4.678-10.449,10.449s4.678,10.449,10.449,10.449h67.322
			c5.771,0,10.449-4.678,10.449-10.449S261.772,354.295,256.001,354.295z"/>
	</g>
</g>
<g>
	<g>
		<path d="M65.241,354.295H38.14c-5.771,0-10.449,4.678-10.449,10.449s4.678,10.449,10.449,10.449h27.102
			c5.77,0,10.449-4.678,10.449-10.449C75.69,358.973,71.012,354.295,65.241,354.295z"/>
	</g>
</g>
<g>
	<g>
		<path d="M488.038,354.295H449.83c-5.771,0-10.449,4.678-10.449,10.449s4.678,10.449,10.449,10.449h38.209
			c5.771,0,10.449-4.678,10.449-10.449S493.809,354.295,488.038,354.295z"/>
	</g>
</g>
<g>
	<g>
		<path d="M318.455,354.295h-36.106c-5.771,0-10.449,4.678-10.449,10.449s4.678,10.449,10.449,10.449h36.106
			c5.771,0,10.449-4.678,10.449-10.449S324.225,354.295,318.455,354.295z"/>
	</g>
</g>
<g>
	<g>
		<path d="M251.566,391.837h-36.107c-5.771,0-10.449,4.678-10.449,10.449s4.678,10.449,10.449,10.449h36.107
			c5.771,0,10.449-4.678,10.449-10.449S257.337,391.837,251.566,391.837z"/>
	</g>
</g>
<g>
	<g>
		<path d="M161.522,391.837h-0.137c-5.771,0-10.449,4.678-10.449,10.449s4.678,10.449,10.449,10.449h0.137
			c5.771,0,10.449-4.678,10.449-10.449S167.293,391.837,161.522,391.837z"/>
	</g>
</g>
<g>
	<g>
		<path d="M127.581,391.837H55.367c-5.771,0-10.449,4.678-10.449,10.449s4.678,10.449,10.449,10.449h72.214
			c5.771,0,10.449-4.678,10.449-10.449S133.352,391.837,127.581,391.837z"/>
	</g>
</g>
<g>
	<g>
		<path d="M456.36,391.837h-0.137c-5.771,0-10.449,4.678-10.449,10.449s4.678,10.449,10.449,10.449h0.137
			c5.771,0,10.449-4.678,10.449-10.449S462.131,391.837,456.36,391.837z"/>
	</g>
</g>
<g>
	<g>
		<path d="M422.42,391.837h-72.214c-5.771,0-10.449,4.678-10.449,10.449s4.678,10.449,10.449,10.449h72.214
			c5.771,0,10.449-4.678,10.449-10.449S428.191,391.837,422.42,391.837z"/>
	</g>
</g>
<g>
	<g>
		<path d="M501.552,238.785c-0.028,0-0.055,0.004-0.083,0.004c-0.028,0-0.054-0.004-0.083-0.004
			c-54.891,0-99.552-44.71-99.596-99.682v-29.388c0-5.771-4.678-10.449-10.449-10.449h-25.129c-5.771,0-10.449,4.678-10.449,10.449
			v29.287c0,0.006-0.001,0.014-0.001,0.02c0,55.01-44.753,99.763-99.763,99.763c-55.01,0-99.763-44.754-99.763-99.763v-29.307
			c0-5.771-4.678-10.449-10.449-10.449h-25.129c-5.771,0-10.449,4.678-10.449,10.449v29.307c0,55.01-44.753,99.763-99.763,99.763
			C4.678,238.785,0,243.463,0,249.234v40.203v35.526c0,5.771,4.678,10.449,10.449,10.449h99.884v19.851
			c0,5.771,4.678,10.449,10.449,10.449c5.771,0,10.449-4.678,10.449-10.449v-19.851h3.99v19.851c0,5.771,4.678,10.449,10.449,10.449
			s10.449-4.678,10.449-10.449v-19.851h199.764v19.851c0,5.771,4.678,10.449,10.449,10.449s10.449-4.678,10.449-10.449v-19.851h3.99
			v19.851c0,5.771,4.678,10.449,10.449,10.449s10.449-4.678,10.449-10.449v-19.851h99.716c5.771,0,10.449-4.678,10.449-10.449
			v-33.725c0.102-0.586,0.166-1.186,0.166-1.801v-40.203h0.001C512.001,243.463,507.323,238.785,501.552,238.785z M438.692,242.027
			c5.049,3.093,10.339,5.826,15.84,8.16v28.802h-15.84V242.027z M401.79,206.86c4.679,6.867,10.048,13.225,16.004,18.979v53.15
			H401.79V206.86z M376.663,120.164h4.231v158.824h-4.231V120.164z M339.925,225.626c5.89-5.709,11.203-12.01,15.84-18.81v72.172
			h-15.84V225.626z M303.188,250.07c5.501-2.347,10.792-5.092,15.84-8.196v37.115h-15.84V250.07z M266.45,259.226
			c5.388-0.464,10.676-1.283,15.84-2.435v22.197h-15.84V259.226z M229.712,256.79c5.164,1.153,10.451,1.971,15.84,2.435v19.763
			h-15.84V256.79z M192.976,241.874c5.048,3.104,10.338,5.85,15.84,8.196v28.919h-15.84V241.874z M156.239,206.817
			c4.635,6.799,9.948,13.1,15.839,18.809v53.362h-15.839V206.817z M131.111,120.164h4.231v158.824h-4.231V120.164z M94.373,225.626
			c5.89-5.709,11.203-12.01,15.84-18.809v72.171h-15.84V225.626z M57.637,250.07c5.501-2.347,10.792-5.092,15.84-8.196v37.115
			h-15.84V250.07z M20.899,259.226c5.388-0.464,10.676-1.283,15.84-2.435v22.197h-15.84V259.226z M490.938,314.515h-0.001H20.899
			v-14.629h99.763h25.011h0.118h220.423h25.011h0.118h99.596V314.515z M491.103,278.988H475.43v-22.133
			c5.112,1.128,10.343,1.931,15.673,2.384V278.988z"/>
	</g>
</g>
<g>
</g>
<g>
</g>
<g>
</g>
<g>
</g>
<g>
</g>
<g>
</g>
<g>
</g>
<g>
</g>
<g>
</g>
<g>
</g>
<g>
</g>
<g>
</g>
<g>
</g>
<g>
</g>
<g>
</g>
</svg>
